PathFileType	4	(X/Y/Z)	T1_P2_Vision_NoMovement_4_0-734.trc
DataRate	CameraRate	NumFrames	NumMarkers	Units	OrigDataRate	OrigDataStartFrame	OrigNumFrames
60	60	5	27	m	60	0	734
Frame#	Time	RHip			RKnee			RAnkle			RBigToe			RSmallToe			RHeel			LHip			LKnee			LAnkle			LBigToe			LSmallToe			LHeel			Neck			Head			Nose			RShoulder			RElbow			RWrist			RThumb			RIndex			RPinky			LShoulder			LElbow			LWrist			LThumb			LIndex			LPinky		
		X1	Y1	Z1	X2	Y2	Z2	X3	Y3	Z3	X4	Y4	Z4	X5	Y5	Z5	X6	Y6	Z6	X7	Y7	Z7	X8	Y8	Z8	X9	Y9	Z9	X10	Y10	Z10	X11	Y11	Z11	X12	Y12	Z12	X13	Y13	Z13	X14	Y14	Z14	X15	Y15	Z15	X16	Y16	Z16	X17	Y17	Z17	X18	Y18	Z18	X19	Y19	Z19	X20	Y20	Z20	X21	Y21	Z21	X22	Y22	Z22	X23	Y23	Z23	X24	Y24	Z24	X25	Y25	Z25	X26	Y26	Z26	X27	Y27	Z27
1	0.0166666666666666	463.8478702177755	3780.491104845305	660.5797012422195	843.1170143580058	3810.801911774879	659.4155415863856	1207.6329215702176	3735.6239071334567	669.7578047115858	1290.316931995579	3642.9154248374707	649.4439608020068	1288.807702768103	3685.462196949949	603.7420999351889	1268.0696745278583	3790.7673863166133	738.3976806954099	463.11299118551165	3651.2038194503593	856.9722574833706	839.7861296602255	3660.640842111959	853.8058733979112	1228.467030635887	3688.4122672490753	866.1422631485732	1309.4172936663344	3561.686288072753	811.4343488907608	1283.2088617774534	3537.503506459181	844.5803492510327	1250.841755802603	3702.309679773547	855.9202497506285	-124.32465011571374	3663.2828022347053	736.0517890210784	-387.25063627669743	3561.2706839829816	675.6993252120973	-241.11337439787607	3521.9863138483574	650.3927383134506	-42.12348653294853	3758.4232578271112	596.6847286501056	200.7140994208875	3748.7987861472075	534.6876612697766	346.1896471251587	3568.859771235621	620.950557459485	412.6908198484804	3532.2505017363737	686.930783856452	437.65305553341653	3553.0615761507975	721.4919461963218	450.64112177547804	3470.64827162481	657.9662583527979	-39.75601101096185	3591.428663910135	879.7742773440575	210.729275926932	3506.681748065435	889.7189886309118	364.0549142838395	3493.211505634134	732.7043715212253	414.11773124810554	3514.8528955724582	628.2235864460304	447.4511016717737	3546.1702381286796	633.0513715689207	465.45500060384444	3472.441410787647	669.6197418612549
2	0.0333333333333333	461.67606409145424	3769.2753662768982	653.664519522551	843.7017001048839	3809.504348941739	658.7350263420116	1205.6016100258255	3733.8438041804093	670.750496658045	1295.1673538981136	3654.0661558444613	658.0207307686039	1290.3036535270949	3697.6352354709425	607.9376443785278	1265.7296665399685	3788.55671274678	737.8435196325645	461.5757978323195	3652.8580082414046	857.8935193543457	840.205968158844	3662.0959579239498	855.0658959580619	1222.389550027078	3678.146939516798	857.4858690270884	1305.1891580149443	3557.51265480007	807.6086233963671	1275.8672918065902	3533.9867631324173	842.8201834014228	1251.3906180960585	3700.751717247565	855.0224142300542	-124.38282510487349	3663.2759166823307	736.0352363114241	-387.4021300904738	3563.538229700781	676.3397432293045	-241.17138284785142	3521.91769944491	650.3756847760111	-43.24103824683763	3757.2749184488744	596.2164506351324	199.08056382357438	3764.567649155485	538.7364428117044	343.22798575717746	3568.120495499329	620.3539330145454	406.85978445442925	3528.6211092308413	682.3502268664574	433.63534686727644	3557.5150045821447	720.3039694385704	452.0858740419901	3491.7058240861243	668.7902459346355	-40.7511582503397	3590.25297508513	879.2304273587315	210.74297085736197	3506.616797230955	889.7083771921125	364.0360358936808	3493.291412343456	732.6957372110996	413.3956623961891	3509.6846795276683	626.8560695583611	443.22140940961157	3535.921443652456	630.96261231655	462.28858691085776	3473.1776765862605	669.4000236752039
3	0.05	460.38670772401554	3762.6893236125056	649.2457223246644	844.6086794806017	3808.9863496355492	658.5044744784072	1204.5307325471058	3733.0665192404085	670.6882576484122	1297.9211995496014	3660.557880931315	662.8788950822462	1291.94728527812	3707.1197879518622	611.0035132844458	1265.3492105489838	3788.0864152632976	737.8760550178025	460.1004317996422	3654.5788351572846	858.8507262773503	841.4537838304486	3664.5954128501007	857.288309981419	1219.4624379062386	3673.7061403658367	853.6309761448161	1304.0677407674928	3555.1877970605574	806.3793860884899	1273.1145325345676	3532.6267166515663	842.1934090795265	1251.9739607554022	3700.8974007323404	855.0136314201003	-124.38813201676072	3663.3541920158796	736.0487580437482	-387.7585778874263	3568.5454299061334	677.7758312925113	-241.19106918256543	3521.8949637136066	650.365480781266	-43.81192149520925	3756.6795504695283	595.9669950572799	198.64799244564762	3774.2565657299083	541.28304387842	341.4157590578107	3567.7313882680523	619.9979414447305	403.9495866476666	3531.373495064692	681.067286896445	430.892987559695	3559.9707864765005	718.440605073656	452.22673713923587	3503.605518222051	673.978018723346	-41.253212832346456	3589.6878117765664	878.9616946312426	210.75127927530517	3506.5272037686686	889.6673936222969	363.99712385182795	3493.3635685138643	732.6773009334554	413.31084957719753	3509.0446339498776	626.6392656125262	440.67122157801236	3529.6645775836014	629.5790615781127	460.0669241723718	3474.036342936865	668.5625765169717
4	0.0666666666666666	460.0452870243512	3761.1264039218313	647.4807854498192	846.1389216628538	3809.3925934835625	658.8171788937849	1204.245601009074	3733.1063094680508	669.9334081408033	1297.8564157038647	3660.7033358900253	662.7594661388214	1292.784070132305	3710.9323783487916	612.1270726477879	1267.4144242207803	3790.7690056265274	738.9306415181892	459.0545504336756	3655.932748663521	859.5891314160394	843.2804416831021	3667.5760538949535	859.9777622026437	1220.0757794408266	3673.7886287197875	853.6304229169273	1305.1843385857435	3553.230880732626	806.2755195090101	1275.3920870169243	3533.624761833853	842.7444579643949	1252.6652130457312	3702.245050546984	855.6191470979403	-124.34217535483904	3663.55979164669	736.117076187966	-388.22999144933226	3575.416766689212	679.7518643597227	-241.17670152453198	3521.909882405417	650.3574520766545	-44.43582351334882	3756.0984315023375	595.7354829601361	199.8148165845562	3777.4615392374094	542.2675685070577	340.84811128214136	3567.70312347438	619.8913006725234	404.83205969365173	3541.058704052785	683.7060764989492	430.10233128608115	3560.3005108290954	715.8191310816155	450.6302377731345	3504.963719998357	672.8336736418566	-41.86768566614812	3589.7373006039343	878.9046807882092	210.86757614035724	3506.285289573633	889.5201507794487	363.94241151006804	3493.4567172418074	732.6672725294256	413.67120804124943	3511.614880534244	627.2454022021531	439.95059720334217	3527.732267026056	629.0065709122194	458.8527950292025	3474.667418390043	667.1566221076416
5	0.0833333333333333	460.1648016537366	3762.010763942563	647.02596918278	848.0865988542707	3810.061372037712	659.2958084541201	1204.0789313938208	3733.655076145048	669.4389791266391	1295.532352454362	3655.786875631861	658.7108615770202	1292.2735517854985	3709.2676490314034	611.5999457243145	1270.5078051622095	3796.83020747725	740.9203820789058	458.74976985288555	3656.464270930056	859.8503503649904	844.537126527809	3670.1230811874875	862.2601934326071	1222.4274628528728	3674.8506041725805	854.6440462468477	1306.1598176494927	3551.440369013753	805.6104882577015	1279.36649383942	3535.4620550817253	843.6452684135609	1252.9121518121271	3703.1354734994875	856.053919106877	-124.29211777384617	3663.807273476414	736.2110431463129	-388.5730860873879	3580.7967474443294	681.301969670025	-241.15794528890154	3521.941779341437	650.350621942771	-45.55274881644057	3755.093439595631	595.3460378021068	201.82265457260883	3777.5121058789614	542.4840887385991	340.90287143119264	3567.8342049072917	619.8975540151497	407.63583859216084	3551.550544147781	687.6189869494964	430.6121542032291	3559.3129631913644	713.383815480506	448.1653758967266	3500.985294466558	668.6347354345902	-42.995075233866224	3590.7226557683684	879.1059701743126	211.29924188040047	3505.7589390971707	889.2099495544519	363.9012963571617	3493.622943976366	732.7220418389934	413.96553612238614	3513.9026707458265	627.8103978483746	440.03941832862415	3528.0789543771953	628.9820309968236	458.1463276563355	3474.8456115142453	666.030536966907
